HIERARCHY
ROOT Hips
{
    OFFSET   0.000000   0.000000   0.000000
    CHANNELS 6 Xposition Yposition Zposition Zrotation Xrotation Yrotation
    JOINT Chest
    {
        OFFSET   0.000000   8.007240   0.000000
        CHANNELS 3 Zrotation Xrotation Yrotation
        JOINT Chest2
        {
            OFFSET   0.000000  22.077100   0.000000
            CHANNELS 3 Zrotation Xrotation Yrotation
            JOINT Neck
            {
                OFFSET   0.000000  23.254800   0.000000
                CHANNELS 3 Zrotation Xrotation Yrotation
                JOINT Head
                {
                    OFFSET   0.000000  14.370000   1.956600
                    CHANNELS 3 Zrotation Xrotation Yrotation
                    End Site
                    {
                        OFFSET   0.000000  19.566000   0.000000
                    }
                }
            }
            JOINT LeftCollar
            {
                OFFSET   3.911900  19.017000  -0.467064
                CHANNELS 3 Zrotation Xrotation Yrotation
                JOINT LeftShoulder
                {
                    OFFSET  10.383700   0.000000   0.000000
                    CHANNELS 3 Zrotation Xrotation Yrotation
                    JOINT LeftElbow
                    {
                        OFFSET  26.662100   0.001476   0.000517
                        CHANNELS 3 Zrotation Xrotation Yrotation
                        JOINT LeftWrist
                        {
                            OFFSET  28.869000  -0.000025  -0.000106
                            CHANNELS 3 Zrotation Xrotation Yrotation
                            JOINT LeftFinger0
                            {
                                OFFSET   2.044660  -2.323460   3.252850
                                CHANNELS 3 Zrotation Xrotation Yrotation
                                JOINT LeftFinger01
                                {
                                    OFFSET   3.088130   0.000000   0.000000
                                    CHANNELS 3 Zrotation Xrotation Yrotation
                                    JOINT LeftFinger02
                                    {
                                        OFFSET   2.639460   0.000000   0.000000
                                        CHANNELS 3 Zrotation Xrotation Yrotation
                                        End Site
                                        {
                                            OFFSET   2.582190   0.000000   0.000000
                                        }
                                    }
                                }
                            }
                            JOINT LeftFinger1
                            {
                                OFFSET   8.364480   0.000000   3.252850
                                CHANNELS 3 Zrotation Xrotation Yrotation
                                JOINT LeftFinger11
                                {
                                    OFFSET   4.646930   0.000000   0.000000
                                    CHANNELS 3 Zrotation Xrotation Yrotation
                                    JOINT LeftFinger12
                                    {
                                        OFFSET   2.323460   0.000000   0.000000
                                        CHANNELS 3 Zrotation Xrotation Yrotation
                                        End Site
                                        {
                                            OFFSET   2.273050   0.000000   0.000000
                                        }
                                    }
                                }
                            }
                            JOINT LeftFinger2
                            {
                                OFFSET   8.364490   0.000015   1.078090
                                CHANNELS 3 Zrotation Xrotation Yrotation
                                JOINT LeftFinger21
                                {
                                    OFFSET   5.111620   0.000000   0.000000
                                    CHANNELS 3 Zrotation Xrotation Yrotation
                                    JOINT LeftFinger22
                                    {
                                        OFFSET   2.788160   0.000016   0.000000
                                        CHANNELS 3 Zrotation Xrotation Yrotation
                                        End Site
                                        {
                                            OFFSET   2.727660   0.000000   0.000000
                                        }
                                    }
                                }
                            }
                            JOINT LeftFinger3
                            {
                                OFFSET   7.899780   0.000017  -1.078090
                                CHANNELS 3 Zrotation Xrotation Yrotation
                                JOINT LeftFinger31
                                {
                                    OFFSET   4.646930   0.000000   0.000000
                                    CHANNELS 3 Zrotation Xrotation Yrotation
                                    JOINT LeftFinger32
                                    {
                                        OFFSET   2.323470   0.000000   0.000000
                                        CHANNELS 3 Zrotation Xrotation Yrotation
                                        End Site
                                        {
                                            OFFSET   2.273050   0.000000   0.000000
                                        }
                                    }
                                }
                            }
                            JOINT LeftFinger4
                            {
                                OFFSET   7.435090   0.000000  -3.252850
                                CHANNELS 3 Zrotation Xrotation Yrotation
                                JOINT LeftFinger41
                                {
                                    OFFSET   3.717550   0.000000   0.000000
                                    CHANNELS 3 Zrotation Xrotation Yrotation
                                    JOINT LeftFinger42
                                    {
                                        OFFSET   1.858770   0.000000   0.000000
                                        CHANNELS 3 Zrotation Xrotation Yrotation
                                        End Site
                                        {
                                            OFFSET   1.818440   0.000000   0.000000
                                        }
                                    }
                                }
                            }
                        }
                    }
                }
            }
            JOINT RightCollar
            {
                OFFSET  -3.911900  19.017000  -0.467063
                CHANNELS 3 Zrotation Xrotation Yrotation
                JOINT RightShoulder
                {
                    OFFSET -10.383700   0.000019   0.000000
                    CHANNELS 3 Zrotation Xrotation Yrotation
                    JOINT RightElbow
                    {
                        OFFSET -26.662100   0.001175   0.000102
                        CHANNELS 3 Zrotation Xrotation Yrotation
                        JOINT RightWrist
                        {
                            OFFSET -28.869000   0.000016  -0.000079
                            CHANNELS 3 Zrotation Xrotation Yrotation
                            JOINT RightFinger0
                            {
                                OFFSET  -2.044660  -2.323490   3.252850
                                CHANNELS 3 Zrotation Xrotation Yrotation
                                JOINT RightFinger01
                                {
                                    OFFSET  -3.088140   0.000000   0.000000
                                    CHANNELS 3 Zrotation Xrotation Yrotation
                                    JOINT RightFinger02
                                    {
                                        OFFSET  -2.639460   0.000000   0.000000
                                        CHANNELS 3 Zrotation Xrotation Yrotation
                                        End Site
                                        {
                                            OFFSET  -2.582190   0.000000   0.000000
                                        }
                                    }
                                }
                            }
                            JOINT RightFinger1
                            {
                                OFFSET  -8.364480   0.000000   3.252850
                                CHANNELS 3 Zrotation Xrotation Yrotation
                                JOINT RightFinger11
                                {
                                    OFFSET  -4.646930   0.000000   0.000000
                                    CHANNELS 3 Zrotation Xrotation Yrotation
                                    JOINT RightFinger12
                                    {
                                        OFFSET  -2.323470   0.000000   0.000000
                                        CHANNELS 3 Zrotation Xrotation Yrotation
                                        End Site
                                        {
                                            OFFSET  -2.273050   0.000000   0.000000
                                        }
                                    }
                                }
                            }
                            JOINT RightFinger2
                            {
                                OFFSET  -8.364480   0.000000   1.078090
                                CHANNELS 3 Zrotation Xrotation Yrotation
                                JOINT RightFinger21
                                {
                                    OFFSET  -5.111620   0.000000   0.000000
                                    CHANNELS 3 Zrotation Xrotation Yrotation
                                    JOINT RightFinger22
                                    {
                                        OFFSET  -2.788160   0.000000   0.000000
                                        CHANNELS 3 Zrotation Xrotation Yrotation
                                        End Site
                                        {
                                            OFFSET  -2.727660   0.000000   0.000000
                                        }
                                    }
                                }
                            }
                            JOINT RightFinger3
                            {
                                OFFSET  -7.899780   0.000000  -1.078090
                                CHANNELS 3 Zrotation Xrotation Yrotation
                                JOINT RightFinger31
                                {
                                    OFFSET  -4.646930   0.000000   0.000000
                                    CHANNELS 3 Zrotation Xrotation Yrotation
                                    JOINT RightFinger32
                                    {
                                        OFFSET  -2.323470   0.000000   0.000000
                                        CHANNELS 3 Zrotation Xrotation Yrotation
                                        End Site
                                        {
                                            OFFSET  -2.273050   0.000000   0.000000
                                        }
                                    }
                                }
                            }
                            JOINT RightFinger4
                            {
                                OFFSET  -7.435090   0.000000  -3.252850
                                CHANNELS 3 Zrotation Xrotation Yrotation
                                JOINT RightFinger41
                                {
                                    OFFSET  -3.717550   0.000000   0.000000
                                    CHANNELS 3 Zrotation Xrotation Yrotation
                                    JOINT RightFinger42
                                    {
                                        OFFSET  -1.858770   0.000000   0.000000
                                        CHANNELS 3 Zrotation Xrotation Yrotation
                                        End Site
                                        {
                                            OFFSET  -1.818440   0.000000   0.000000
                                        }
                                    }
                                }
                            }
                        }
                    }
                }
            }
        }
    }
    JOINT LeftHip
    {
        OFFSET   9.783040   0.000000   0.000000
        CHANNELS 3 Zrotation Xrotation Yrotation
        JOINT LeftKnee
        {
            OFFSET   0.000032 -41.789100  -0.002222
            CHANNELS 3 Zrotation Xrotation Yrotation
            JOINT LeftAnkle
            {
                OFFSET   0.000087 -41.133200  -0.000135
                CHANNELS 3 Zrotation Xrotation Yrotation
                JOINT LeftToe
                {
                    OFFSET   0.000000  -6.358960  14.674500
                    CHANNELS 3 Zrotation Xrotation Yrotation
                    End Site
                    {
                        OFFSET   0.000000   0.000000   3.913200
                    }
                }
            }
        }
    }
    JOINT RightHip
    {
        OFFSET  -9.783040   0.000000   0.000000
        CHANNELS 3 Zrotation Xrotation Yrotation
        JOINT RightKnee
        {
            OFFSET   0.000047 -41.789100  -0.000896
            CHANNELS 3 Zrotation Xrotation Yrotation
            JOINT RightAnkle
            {
                OFFSET  -0.000117 -41.133300  -0.000248
                CHANNELS 3 Zrotation Xrotation Yrotation
                JOINT RightToe
                {
                    OFFSET   0.000000  -6.358970  14.674500
                    CHANNELS 3 Zrotation Xrotation Yrotation
                    End Site
                    {
                        OFFSET   0.000000   0.000000   3.913200
                    }
                }
            }
        }
    }
}
MOTION
Frames: 4
Frame Time:   0.016667
  0.856819  89.587900   1.576950  -0.397402  -0.502309   1.514770   0.644633   1.558090  -1.311410   1.325510   3.100910  -2.641740   0.515572  -0.636581   0.008111   0.847360  -1.290660   4.486750  -6.215010   2.489530   1.630660 -69.966600  15.681800  -7.130140  -1.758360  -4.379420  -6.917590   2.032250  -8.374120   0.671923  40.563300  28.660100 -65.747600 -23.164700   0.012478   0.006792  -6.573010   0.005533   0.005425 -29.151300   3.144290  -5.593640 -23.967700   0.001104   0.004272 -16.776100   0.000696   0.001553 -27.184800  -0.123067   0.267568 -27.725200   0.000497   0.007576 -18.478600   0.002777   0.000161 -26.904600  -2.062680   4.044130 -26.979200  -0.000641  -0.003158 -17.974500   0.005211  -0.008004 -28.351400  -3.308850   6.086240 -42.778800   0.003966  -0.005876 -28.498300   0.002220  -0.003904   7.541140   1.091740   7.743250  71.866900   5.460420   0.249756   0.883282  -3.713880   6.639660  -4.922110  -6.052030   3.973630 -45.657800  41.203500  78.878400  27.866800  -0.003109  -0.006202   8.932110  -0.009013   0.003727  27.326500   7.979950  15.024400  23.221200   0.002515   0.000231  16.266600   0.000894  -0.013557  27.322500   5.641610  10.767600  31.099300  -0.010472  -0.002192  20.712100   0.002596   0.000975  27.805800   4.048500   7.620910  32.509900  -0.003781  -0.006565  21.651600  -0.005237  -0.000254  30.663600   1.139330   1.901810  46.023900  -0.002611   0.000215  30.651900  -0.001951   0.002330   0.620075   3.347680   1.557990   0.726660   0.197076   7.540760  -3.035250  -3.309050   2.876010  -0.000000   0.000000   0.000000  -0.256142   0.745020  -3.040210   1.451070   1.974780  -8.386650  -3.651700  -2.542130  -5.562080   0.000000   0.000000   0.000000
  0.856833  89.587900   1.570520  -0.397290  -0.505716   1.521310   0.647486   1.560470  -1.313820   1.331340   3.105570  -2.646660   0.520838  -0.629493   0.008111   0.855984  -1.276400   4.485800  -6.214910   2.494570   1.630730 -69.966300  15.682300  -7.131060  -1.762610  -4.374420  -6.917510   2.028750  -8.374380   0.671930  40.550300  28.650900 -65.736400 -23.164900   0.012480   0.006785  -6.573040   0.005530   0.005423 -29.151500   3.144270  -5.593550 -23.967700   0.001105   0.004272 -16.776100   0.000696   0.001556 -27.184800  -0.123088   0.267700 -27.729100   0.000498   0.007575 -18.478600   0.002774   0.000157 -26.904500  -2.062710   4.043790 -26.979200  -0.000636  -0.003157 -17.974500   0.005210  -0.007999 -28.351800  -3.308970   6.089970 -42.779000   0.003961  -0.005874 -28.498900   0.002220  -0.003900   7.541180   1.091870   7.743250  71.867400   5.460420   0.243943   0.882535  -3.713970   6.628020  -4.932190  -6.052000   3.978210 -45.649100  41.202300  78.875400  27.870900  -0.003106  -0.006190   8.932050  -0.009012   0.003723  27.333900   7.980210  15.020500  23.227100   0.002514   0.000231  16.266900   0.000893  -0.013559  27.322600   5.641600  10.767500  31.112900  -0.010477  -0.002192  20.721100   0.002599   0.000973  27.805900   4.048520   7.621040  32.517800  -0.003780  -0.006564  21.656900  -0.005236  -0.000253  30.668100   1.139320   1.901670  46.030600  -0.002612   0.000216  30.656400  -0.001953   0.002330   0.620429   3.382750   1.557940   0.725359   0.165825   7.540860  -3.036080  -3.308000   2.872440  -0.000000   0.000000   0.000000  -0.256132   0.755155  -3.040300   1.451850   1.965080  -8.392300  -3.651160  -2.537490  -5.562230   0.000000   0.000000   0.000000
  0.856869  89.587800   1.559690  -0.397099  -0.511812   1.532130   0.652356   1.565190  -1.317890   1.341310   3.114850  -2.654990   0.530424  -0.615390   0.008116   0.871711  -1.247890   4.480470  -6.214880   2.502260   1.630840 -69.965400  15.685400  -7.133110  -1.769430  -4.369420  -6.917390   2.021980  -8.374640   0.671938  40.537200  28.641600 -65.725200 -23.165100   0.012481   0.006775  -6.573100   0.005523   0.005422 -29.151700   3.144220  -5.593390 -23.967800   0.001109   0.004273 -16.776000   0.000697   0.001564 -27.184800  -0.123135   0.267831 -27.734800   0.000500   0.007568 -18.478700   0.002768   0.000149 -26.904400  -2.062760   4.043320 -26.979000  -0.000622  -0.003153 -17.974500   0.005206  -0.007987 -28.351900  -3.309080   6.096200 -42.779300   0.003950  -0.005869 -28.499400   0.002221  -0.003893   7.541230   1.092060   7.743270  71.867900   5.460420   0.232767   0.881557  -3.714080   6.612160  -4.941900  -6.051940   3.986320 -45.634600  41.201100  78.872500  27.875000  -0.003100  -0.006170   8.931930  -0.009011   0.003718  27.341400   7.980480  15.016600  23.232900   0.002512   0.000233  16.267200   0.000889  -0.013568  27.322600   5.641570  10.767500  31.126400  -0.010488  -0.002193  20.730200   0.002607   0.000970  27.806000   4.048570   7.621170  32.525800  -0.003780  -0.006563  21.662200  -0.005233  -0.000250  30.673100   1.139300   1.901540  46.038100  -0.002615   0.000219  30.661400  -0.001957   0.002330   0.620783   3.417820   1.557880   0.724058   0.134575   7.541180  -3.037200  -3.304390   2.865920   0.000000   0.000000  -0.000000  -0.256109   0.775573  -3.040450   1.453310   1.945240  -8.401520  -3.650320  -2.529690  -5.562430   0.000000   0.000000  -0.000000
  0.856928  89.587800   1.550870  -0.396955  -0.517445   1.541230   0.656611   1.570570  -1.321170   1.350040   3.125470  -2.661750   0.539978  -0.599336   0.008192   0.887476  -1.215120   4.468610  -6.216140   2.507070   1.630970 -69.963700  15.693000  -7.135830  -1.774500  -4.374930  -6.917320   2.013200  -8.374580   0.667262  40.536400  28.646900 -65.730300 -23.165000   0.012478   0.006770  -6.573160   0.005509   0.005435 -29.150500   3.144150  -5.593180 -23.967800   0.001118   0.004278 -16.775900   0.000697   0.001577 -27.184800  -0.123205   0.267089 -27.737800   0.000506   0.007556 -18.478900   0.002760   0.000138 -26.904300  -2.062840   4.043120 -26.978900  -0.000600  -0.003147 -17.974400   0.005199  -0.007967 -28.347400  -3.308710   6.102460 -42.778500   0.003934  -0.005862 -28.495200   0.002222  -0.003884   7.541250   1.092180   7.743370  71.864700   5.456650   0.220201   0.884274  -3.714270   6.607480  -4.933220  -6.049810   3.995840 -45.636800  41.207700  78.885700  27.868700  -0.003090  -0.006159   8.931760  -0.009019   0.003731  27.340600   7.979760  15.020900  23.232500   0.002507   0.000235  16.265600   0.000884  -0.013582  27.322600   5.641530  10.767500  31.124900  -0.010500  -0.002202  20.729200   0.002622   0.000966  27.806100   4.048650   7.620830  32.525200  -0.003776  -0.006560  21.661800  -0.005225  -0.000245  30.673700   1.139260   1.901570  46.039100  -0.002616   0.000223  30.662000  -0.001962   0.002332   0.620776   3.416770   1.557960   0.724079   0.135323   7.541720  -3.037850  -3.295160   2.859370  -0.000000   0.000000   0.000000  -0.256069   0.806570  -3.040600   1.455190   1.914380  -8.408030  -3.649690  -2.522970  -5.562500  -0.000000   0.000000   0.000000
